<?xml version="1.0" standalone="no"?>
<!DOCTYPE svg PUBLIC "-//W3C//DTD SVG 20010904//EN"
 "http://www.w3.org/TR/2001/REC-SVG-20010904/DTD/svg10.dtd">
<svg version="1.0" xmlns="http://www.w3.org/2000/svg"
 width="128.000000pt" height="128.000000pt" viewBox="0 0 129.000000 129.000000"
 preserveAspectRatio="xMidYMid meet">

<g transform="translate(0.000000,128.000000) scale(0.100000,-0.100000)"
fill="#000000" stroke="none">
<path d="M120 1265 c-8 -9 -11 -40 -9 -87 3 -69 2 -76 -32 -128 -20 -30 -47
-74 -60 -96 l-23 -42 48 -50 c27 -28 62 -56 78 -63 23 -9 27 -15 21 -33 -5
-11 -8 -68 -7 -126 0 -90 4 -112 24 -155 23 -47 25 -63 28 -255 2 -122 8 -210
14 -217 17 -21 713 -18 793 2 122 31 228 133 265 255 19 60 20 89 18 350 l-3
285 -42 -1 c-53 -1 -104 -35 -135 -89 -22 -38 -23 -53 -28 -265 -5 -242 -8
-257 -64 -309 l-26 -24 0 74 c0 56 -6 86 -24 124 -25 54 -49 80 -66 70 -15 -9
-12 -25 15 -79 37 -73 35 -163 -5 -233 -55 -95 -119 -123 -286 -123 l-114 0 0
25 c0 21 5 25 29 25 48 0 55 22 21 60 -39 44 -53 94 -39 143 15 54 47 86 109
107 56 19 75 42 44 54 -20 8 -89 -10 -122 -32 l-25 -16 8 29 c13 49 12 80 -5
80 -37 0 -69 -135 -70 -292 l0 -83 -40 0 -40 0 0 144 c0 113 -3 145 -14 149
-29 12 -36 -16 -36 -155 l0 -138 -40 0 -40 0 0 128 c0 115 -3 135 -30 212 -32
91 -40 202 -20 255 9 23 14 26 38 20 15 -3 48 -17 74 -30 l47 -25 56 30 c32
17 64 30 74 29 9 0 33 -23 54 -50 41 -54 161 -149 190 -149 38 0 16 39 -47 84
-56 40 -135 122 -125 130 2 1 20 12 39 24 34 20 110 94 110 107 0 3 -26 48
-59 100 l-58 93 4 69 c4 50 1 73 -10 87 -14 19 -16 19 -61 2 -26 -10 -60 -29
-75 -42 -42 -35 -139 -35 -185 1 -31 24 -96 55 -114 55 -5 0 -15 -7 -22 -15z
m83 -64 c15 -10 34 -27 42 -37 12 -17 24 -20 105 -18 81 1 93 4 106 23 13 18
63 51 79 51 10 0 5 -69 -7 -95 -10 -21 -8 -29 9 -48 12 -12 37 -48 57 -79 l37
-58 -31 0 c-40 0 -51 -26 -21 -50 l23 -16 -24 -15 c-30 -19 -74 -36 -118 -45
-19 -3 -52 -15 -73 -26 -38 -19 -39 -19 -80 1 -23 11 -65 25 -93 31 -27 6 -65
20 -83 31 l-33 20 20 20 c28 25 18 49 -19 49 l-30 0 23 41 c13 22 38 57 56 79
28 33 31 42 22 65 -12 31 -13 95 -2 95 4 0 20 -8 35 -19z m1025 -671 c-3 -221
-5 -238 -26 -281 -55 -112 -161 -185 -280 -196 l-61 -6 52 55 c29 30 65 60 81
68 41 21 101 92 114 138 8 24 12 114 12 235 0 114 4 207 11 224 13 34 47 73
74 83 18 7 20 3 23 -39 2 -25 2 -152 0 -281z m-908 -455 c0 -22 -4 -25 -40
-25 -32 0 -40 4 -40 18 0 26 9 32 47 32 29 0 33 -3 33 -25z m130 0 c0 -22 -4
-25 -40 -25 -32 0 -40 4 -40 18 0 26 9 32 47 32 29 0 33 -3 33 -25z"/>
<path d="M222 1037 c-6 -7 -8 -17 -4 -23 11 -18 53 -36 68 -30 23 9 16 35 -16
51 -35 18 -35 18 -48 2z"/>
<path d="M419 1032 c-24 -20 -21 -52 5 -52 24 0 60 35 53 53 -8 22 -29 21 -58
-1z"/>
<path d="M319 914 c-17 -21 0 -49 31 -49 31 0 48 28 31 49 -8 9 -21 16 -31 16
-10 0 -23 -7 -31 -16z"/>
<path d="M794 549 c-10 -17 23 -46 37 -32 7 7 9 19 6 27 -7 18 -33 21 -43 5z"/>
</g>
</svg>
