<?xml version="1.0" standalone="no"?>
<!DOCTYPE svg PUBLIC "-//W3C//DTD SVG 20010904//EN"
 "http://www.w3.org/TR/2001/REC-SVG-20010904/DTD/svg10.dtd">
<svg version="1.0" xmlns="http://www.w3.org/2000/svg"
 width="32.000000pt" height="32.000000pt" viewBox="0 0 32.000000 32.000000"
 preserveAspectRatio="xMidYMid meet">

<g transform="translate(0.000000,32.000000) scale(0.100000,-0.100000)"
fill="#000000" stroke="none">
<path d="M30 296 c0 -12 -4 -26 -9 -31 -6 -6 0 -17 15 -28 23 -17 24 -17 30 0
3 10 10 26 14 35 7 13 3 20 -20 32 -29 14 -30 14 -30 -8z"/>
<path d="M157 310 c-3 -8 -8 -27 -11 -42 -8 -36 -52 -86 -78 -90 -33 -5 -32
-24 2 -38 33 -14 74 -58 104 -111 l19 -34 14 44 c13 46 66 111 90 111 7 0 13
5 13 10 0 6 -9 10 -20 10 -52 0 -93 40 -116 115 -7 24 -14 34 -17 25z"/>
<path d="M246 271 c-12 -13 -13 -20 -4 -29 7 -7 18 -12 25 -12 21 0 27 28 10
44 -13 13 -17 13 -31 -3z"/>
<path d="M56 74 c-20 -14 -20 -14 0 -29 10 -8 23 -15 27 -15 15 0 19 32 6 45
-12 12 -17 12 -33 -1z"/>
</g>
</svg>
