<?xml version="1.0" standalone="no"?>
<!DOCTYPE svg PUBLIC "-//W3C//DTD SVG 20010904//EN"
 "http://www.w3.org/TR/2001/REC-SVG-20010904/DTD/svg10.dtd">
<svg version="1.0" xmlns="http://www.w3.org/2000/svg"
 width="64.000000pt" height="64.000000pt" viewBox="0 0 64.000000 64.000000"
 preserveAspectRatio="xMidYMid meet">

<g transform="translate(0.000000,64.000000) scale(0.100000,-0.100000)"
fill="#000000" stroke="none">
<path d="M170 440 c-17 -22 -35 -40 -40 -40 -5 0 -18 16 -30 35 -13 20 -30 35
-41 35 -28 0 -24 -17 17 -66 45 -56 68 -57 117 -2 l38 43 17 -25 c29 -41 51
-60 72 -60 21 0 43 19 72 60 l17 25 38 -43 c49 -55 72 -54 117 2 41 49 45 66
16 66 -13 0 -28 -13 -41 -35 -12 -19 -25 -35 -29 -35 -5 0 -23 18 -40 40 -42
53 -68 53 -114 -2 l-36 -43 -36 43 c-46 55 -72 55 -114 2z"/>
<path d="M170 240 c-17 -22 -35 -40 -40 -40 -5 0 -18 16 -30 35 -13 20 -30 35
-41 35 -28 0 -24 -17 17 -66 45 -56 68 -57 117 -2 l38 43 17 -25 c29 -41 51
-60 72 -60 21 0 43 19 72 60 l17 25 38 -43 c23 -26 47 -42 60 -42 25 0 98 83
88 100 -12 20 -36 10 -56 -25 -12 -19 -25 -35 -29 -35 -5 0 -23 18 -40 40 -42
53 -68 53 -114 -2 l-36 -43 -36 43 c-46 55 -72 55 -114 2z"/>
</g>
</svg>
